<?xml version="1.0" encoding="utf-8"?>
<!-- Generator: Adobe Illustrator 22.1.0, SVG Export Plug-In . SVG Version: 6.00 Build 0)  -->
<svg version="1.1" id="Layer_1" xmlns="http://www.w3.org/2000/svg" xmlns:xlink="http://www.w3.org/1999/xlink" x="0px" y="0px"
	 viewBox="0 0 772.2 198.1" style="enable-background:new 0 0 772.2 198.1;" xml:space="preserve">
<g>
	<rect x="296" style="fill:#E98B55;" width="188.6" height="198.1"/>
	<g>
		<path style="fill:#FFFFFF;" d="M391.8,64.6c-0.1-0.3-0.2-0.5-0.4-0.7l-5.4-11c-0.3-0.7-1.1-1-1.9-1l0,0c-0.8,0-1.5,0.3-1.9,1.1
			l-37.8,79.5c-0.5,1-0.1,2.3,1,2.8c0.3,0.1,0.6,0.2,0.9,0.2c0.8,0,1.5-0.4,1.9-1.2l36-75.7l3.3,6.7l-32,67.3c-0.5,1-0.1,2.3,1,2.8
			c0.3,0.1,0.6,0.2,0.9,0.2c0.8,0,1.5-0.4,1.9-1.2l8.2-17.3c0,0,0,0,0.1,0h45c0.1,0,0.1,0,0.2,0l8.5,17.4c0.5,1,1.7,1.5,2.8,1
			c1-0.5,1.4-1.7,0.9-2.7L391.8,64.6z M406,102.9h-31.8l15.7-33L406,102.9z M369.4,112.9l2.9-6h35c0.2,0,0.4,0,0.6-0.1l3,6.1H369.4z
			"/>
		<path style="fill:#FFFFFF;" d="M436,132.4l-38.9-79.6c-0.5-1-1.7-1.5-2.8-0.9c-1,0.5-1.4,1.7-0.9,2.8l38.9,79.6
			c0.4,0.7,1.1,1.2,1.9,1.2c0.3,0,0.6-0.1,0.9-0.2C436.1,134.7,436.5,133.4,436,132.4z"/>
	</g>
</g>
<g>
	<path style="fill:#5D5D5D;" d="M2.5,96H0.3C0.1,96,0,95.9,0,95.7v-1.2c0-0.1,0.1-0.3,0.3-0.3h6.2c0.2,0,0.3,0.1,0.3,0.3v1.2
		c0,0.1-0.1,0.3-0.3,0.3H4.3v8c0,0.1-0.1,0.3-0.3,0.3H2.8c-0.1,0-0.3-0.1-0.3-0.3V96z"/>
	<path style="fill:#5D5D5D;" d="M15.1,94.6c0-0.1,0.1-0.3,0.3-0.3h1.3c0.2,0,0.3,0.1,0.3,0.3v3.8h4.6v-3.8c0-0.1,0.1-0.3,0.3-0.3
		h1.3c0.1,0,0.3,0.1,0.3,0.3v9.4c0,0.1-0.1,0.3-0.3,0.3h-1.3c-0.2,0-0.3-0.1-0.3-0.3v-3.9H17v3.9c0,0.1-0.1,0.3-0.3,0.3h-1.3
		c-0.1,0-0.3-0.1-0.3-0.3V94.6z"/>
	<path style="fill:#5D5D5D;" d="M32.9,94.6c0-0.1,0.1-0.3,0.3-0.3H39c0.2,0,0.3,0.1,0.3,0.3v1.2c0,0.1-0.1,0.3-0.3,0.3h-4.2v2.3h3.5
		c0.1,0,0.3,0.1,0.3,0.3v1.2c0,0.2-0.1,0.3-0.3,0.3h-3.5v2.5H39c0.2,0,0.3,0.1,0.3,0.3v1.2c0,0.1-0.1,0.3-0.3,0.3h-5.8
		c-0.2,0-0.3-0.1-0.3-0.3V94.6z"/>
	<path style="fill:#5D5D5D;" d="M58,94.4c0-0.1,0.1-0.3,0.3-0.3h0.4l5.9,6.3l0,0v-5.9c0-0.1,0.1-0.3,0.3-0.3h1.3
		c0.1,0,0.3,0.1,0.3,0.3v9.6c0,0.1-0.1,0.3-0.3,0.3h-0.4l-5.9-6.5l0,0v6.1c0,0.1-0.1,0.3-0.3,0.3h-1.3c-0.1,0-0.3-0.1-0.3-0.3
		C58,104,58,94.4,58,94.4z"/>
	<path style="fill:#5D5D5D;" d="M75.8,94.6c0-0.1,0.1-0.3,0.3-0.3h5.8c0.2,0,0.3,0.1,0.3,0.3v1.2c0,0.1-0.1,0.3-0.3,0.3h-4.2v2.3
		h3.5c0.1,0,0.3,0.1,0.3,0.3v1.2c0,0.2-0.1,0.3-0.3,0.3h-3.5v2.5h4.2c0.2,0,0.3,0.1,0.3,0.3v1.2c0,0.1-0.1,0.3-0.3,0.3h-5.8
		c-0.2,0-0.3-0.1-0.3-0.3V94.6z"/>
	<path style="fill:#5D5D5D;" d="M90.1,94.7c-0.1-0.2,0.1-0.3,0.3-0.3h1.3c0.1,0,0.2,0.1,0.3,0.2l1.5,5.7h0.1l2.3-5.9
		c0-0.1,0.1-0.2,0.2-0.2h0.3c0.1,0,0.2,0.1,0.2,0.2l2.3,5.9H99l1.4-5.7c0-0.1,0.1-0.2,0.3-0.2h1.3c0.2,0,0.3,0.1,0.3,0.3l-2.7,9.5
		c0,0.1-0.1,0.2-0.3,0.2h-0.5c-0.1,0-0.2-0.1-0.2-0.2l-2.5-6.4H96l-2.5,6.4c0,0.1-0.1,0.2-0.2,0.2h-0.2c-0.1,0-0.2-0.1-0.3-0.2
		L90.1,94.7z"/>
	<path style="fill:#5D5D5D;" d="M119.9,102.9l0.5-0.9c0.1-0.2,0.4-0.2,0.5-0.1c0.1,0,1.2,0.9,2.1,0.9c0.7,0,1.3-0.5,1.3-1.1
		c0-0.7-0.6-1.2-1.8-1.7c-1.3-0.5-2.7-1.4-2.7-3.1c0-1.3,0.9-2.7,3.2-2.7c1.4,0,2.6,0.7,2.8,1c0.1,0.1,0.2,0.3,0.1,0.5l-0.5,0.8
		c-0.1,0.2-0.3,0.3-0.5,0.2c-0.1-0.1-1.2-0.8-2-0.8s-1.2,0.5-1.2,1c0,0.7,0.5,1.1,1.7,1.6c1.4,0.6,3,1.4,3,3.2
		c0,1.5-1.3,2.8-3.3,2.8c-1.8,0-2.8-0.8-3.1-1.1C119.8,103.2,119.8,103.1,119.9,102.9z"/>
	<path style="fill:#5D5D5D;" d="M136.3,96h-2.2c-0.2,0-0.3-0.1-0.3-0.3v-1.2c0-0.1,0.1-0.3,0.3-0.3h6.2c0.2,0,0.3,0.1,0.3,0.3v1.2
		c0,0.1-0.1,0.3-0.3,0.3h-2.2v8c0,0.1-0.1,0.3-0.3,0.3h-1.3c-0.1,0-0.3-0.1-0.3-0.3v-8H136.3z"/>
	<path style="fill:#5D5D5D;" d="M147.1,103.9l4.4-9.6c0-0.1,0.1-0.2,0.2-0.2h0.1c0.1,0,0.2,0.1,0.2,0.2l4.4,9.6
		c0.1,0.2,0,0.4-0.2,0.4H155c-0.2,0-0.3-0.1-0.4-0.3l-0.7-1.5h-4.2L149,104c-0.1,0.1-0.2,0.3-0.4,0.3h-1.2
		C147.1,104.3,147,104.1,147.1,103.9z M153.2,100.9l-1.4-3.1l0,0l-1.4,3.1H153.2z"/>
	<path style="fill:#5D5D5D;" d="M164.6,94.4c0-0.1,0.1-0.3,0.3-0.3h0.4l5.9,6.3l0,0v-5.9c0-0.1,0.1-0.3,0.3-0.3h1.3
		c0.1,0,0.3,0.1,0.3,0.3v9.6c0,0.1-0.1,0.3-0.3,0.3h-0.3l-5.9-6.5l0,0v6.1c0,0.1-0.1,0.3-0.3,0.3H165c-0.1,0-0.3-0.1-0.3-0.3
		L164.6,94.4L164.6,94.4z"/>
	<path style="fill:#5D5D5D;" d="M182.4,94.6c0-0.1,0.1-0.3,0.3-0.3h3.4c2.7,0,5,2.2,5,5s-2.2,5-5,5h-3.4c-0.1,0-0.3-0.1-0.3-0.3
		V94.6z M185.8,102.5c1.8,0,3.2-1.4,3.2-3.3c0-1.8-1.3-3.2-3.2-3.2h-1.6v6.5H185.8z"/>
	<path style="fill:#5D5D5D;" d="M198.3,103.9l4.4-9.6c0-0.1,0.1-0.2,0.2-0.2h0.1c0.1,0,0.2,0.1,0.2,0.2l4.4,9.6
		c0.1,0.2,0,0.4-0.2,0.4h-1.2c-0.2,0-0.3-0.1-0.4-0.3l-0.7-1.5h-4.2l-0.7,1.5c-0.1,0.1-0.2,0.3-0.4,0.3h-1.2
		C198.3,104.3,198.2,104.1,198.3,103.9z M204.4,100.9l-1.4-3.1l0,0l-1.4,3.1H204.4z"/>
	<path style="fill:#5D5D5D;" d="M215.8,94.6c0-0.1,0.1-0.3,0.3-0.3h4.1c1.7,0,3.1,1.4,3.1,3.1c0,1.3-0.9,2.4-2.1,2.9l1.9,3.6
		c0.1,0.2,0,0.4-0.2,0.4h-1.5c-0.1,0-0.2-0.1-0.2-0.1l-1.9-3.8h-1.6v3.6c0,0.1-0.1,0.3-0.3,0.3h-1.3c-0.2,0-0.3-0.1-0.3-0.3V94.6z
		 M220,98.8c0.8,0,1.4-0.7,1.4-1.4c0-0.8-0.7-1.4-1.4-1.4h-2.3v2.8L220,98.8L220,98.8z"/>
	<path style="fill:#5D5D5D;" d="M232.1,94.6c0-0.1,0.1-0.3,0.3-0.3h3.4c2.7,0,5,2.2,5,5s-2.2,5-5,5h-3.4c-0.1,0-0.3-0.1-0.3-0.3
		V94.6z M235.5,102.5c1.8,0,3.2-1.4,3.2-3.3c0-1.8-1.3-3.2-3.2-3.2h-1.6v6.5H235.5z"/>
</g>
<g>
	<path style="fill:#5D5D5D;" d="M551.5,94.6c0-0.1,0.1-0.3,0.3-0.3h1.3c0.1,0,0.3,0.1,0.3,0.3v9.4c0,0.1-0.1,0.3-0.3,0.3h-1.3
		c-0.1,0-0.3-0.1-0.3-0.3V94.6z"/>
	<path style="fill:#5D5D5D;" d="M562.7,94.4c0-0.1,0.1-0.3,0.3-0.3h0.4l5.9,6.3l0,0v-5.9c0-0.1,0.1-0.3,0.3-0.3h1.3
		c0.1,0,0.3,0.1,0.3,0.3v9.6c0,0.1-0.1,0.3-0.3,0.3h-0.3l-5.9-6.5l0,0v6.1c0,0.1-0.1,0.3-0.3,0.3h-1.3c-0.1,0-0.3-0.1-0.3-0.3v-9.6
		H562.7z"/>
	<path style="fill:#5D5D5D;" d="M589.9,102.9l0.5-0.9c0.1-0.2,0.4-0.2,0.5-0.1c0.1,0,1.2,0.9,2.1,0.9c0.7,0,1.3-0.5,1.3-1.1
		c0-0.7-0.6-1.2-1.8-1.7c-1.3-0.5-2.7-1.4-2.7-3.1c0-1.3,0.9-2.7,3.2-2.7c1.4,0,2.6,0.7,2.8,1c0.1,0.1,0.2,0.3,0.1,0.5l-0.5,0.8
		c-0.1,0.2-0.3,0.3-0.5,0.2c-0.1-0.1-1.2-0.8-2-0.8s-1.2,0.5-1.2,1c0,0.7,0.5,1.1,1.7,1.6c1.4,0.6,3,1.4,3,3.2
		c0,1.5-1.3,2.8-3.3,2.8c-1.8,0-2.8-0.8-3.1-1.1C589.8,103.2,589.8,103.1,589.9,102.9z"/>
	<path style="fill:#5D5D5D;" d="M605,94.6c0-0.1,0.1-0.3,0.3-0.3h5.8c0.2,0,0.3,0.1,0.3,0.3v1.2c0,0.1-0.1,0.3-0.3,0.3h-4.3v2.3h3.5
		c0.1,0,0.3,0.1,0.3,0.3v1.2c0,0.2-0.1,0.3-0.3,0.3h-3.5v2.5h4.2c0.2,0,0.3,0.1,0.3,0.3v1.2c0,0.1-0.1,0.3-0.3,0.3h-5.8
		c-0.2,0-0.3-0.1-0.3-0.3L605,94.6L605,94.6z"/>
	<path style="fill:#5D5D5D;" d="M620.1,94.4c0-0.1,0.1-0.3,0.3-0.3h0.4l5.9,6.3l0,0v-5.9c0-0.1,0.1-0.3,0.3-0.3h1.3
		c0.1,0,0.3,0.1,0.3,0.3v9.6c0,0.1-0.1,0.3-0.3,0.3H628l-5.9-6.5l0,0v6.1c0,0.1-0.1,0.3-0.3,0.3h-1.3c-0.1,0-0.3-0.1-0.3-0.3v-9.6
		H620.1z"/>
	<path style="fill:#5D5D5D;" d="M637.9,94.6c0-0.1,0.1-0.3,0.3-0.3h1.3c0.1,0,0.3,0.1,0.3,0.3v9.4c0,0.1-0.1,0.3-0.3,0.3h-1.3
		c-0.1,0-0.3-0.1-0.3-0.3V94.6z"/>
	<path style="fill:#5D5D5D;" d="M653.6,94.2c2.8,0,5.1,2.3,5.1,5.1s-2.3,5.1-5.1,5.1s-5.1-2.3-5.1-5.1S650.7,94.2,653.6,94.2z
		 M653.6,102.6c1.8,0,3.3-1.5,3.3-3.3s-1.5-3.3-3.3-3.3s-3.3,1.5-3.3,3.3S651.8,102.6,653.6,102.6z"/>
	<path style="fill:#5D5D5D;" d="M667.4,94.6c0-0.1,0.1-0.3,0.3-0.3h4.1c1.7,0,3.1,1.4,3.1,3.1c0,1.3-0.9,2.4-2.1,2.9l1.9,3.6
		c0.1,0.2,0,0.4-0.2,0.4H673c-0.1,0-0.2-0.1-0.2-0.1l-1.9-3.8h-1.6v3.6c0,0.1-0.1,0.3-0.3,0.3h-1.3c-0.2,0-0.3-0.1-0.3-0.3V94.6z
		 M671.5,98.8c0.8,0,1.4-0.7,1.4-1.4c0-0.8-0.7-1.4-1.4-1.4h-2.3v2.8L671.5,98.8L671.5,98.8z"/>
	<path style="fill:#5D5D5D;" d="M693.6,94.6c0-0.1,0.1-0.3,0.3-0.3h1.3c0.1,0,0.3,0.1,0.3,0.3v8h3.6c0.2,0,0.3,0.1,0.3,0.3v1.2
		c0,0.1-0.1,0.3-0.3,0.3h-5.2c-0.2,0-0.3-0.1-0.3-0.3L693.6,94.6L693.6,94.6z"/>
	<path style="fill:#5D5D5D;" d="M707.6,94.6c0-0.1,0.1-0.3,0.3-0.3h1.3c0.1,0,0.3,0.1,0.3,0.3v9.4c0,0.1-0.1,0.3-0.3,0.3h-1.4
		c-0.1,0-0.3-0.1-0.3-0.3L707.6,94.6L707.6,94.6z"/>
	<path style="fill:#5D5D5D;" d="M717.5,94.7c-0.1-0.2,0-0.4,0.2-0.4h1.4c0.1,0,0.2,0.1,0.2,0.2l2.7,6.1h0.1l2.7-6.1
		c0-0.1,0.1-0.2,0.2-0.2h1.4c0.2,0,0.3,0.2,0.2,0.4l-4.4,9.6c0,0.1-0.1,0.2-0.2,0.2h-0.1c-0.1,0-0.2-0.1-0.2-0.2L717.5,94.7z"/>
	<path style="fill:#5D5D5D;" d="M735.1,94.6c0-0.1,0.1-0.3,0.3-0.3h1.3c0.1,0,0.3,0.1,0.3,0.3v9.4c0,0.1-0.1,0.3-0.3,0.3h-1.3
		c-0.1,0-0.3-0.1-0.3-0.3V94.6z"/>
	<path style="fill:#5D5D5D;" d="M746.3,94.4c0-0.1,0.1-0.3,0.3-0.3h0.4l5.9,6.3l0,0v-5.9c0-0.1,0.1-0.3,0.3-0.3h1.3
		c0.1,0,0.3,0.1,0.3,0.3v9.6c0,0.1-0.1,0.3-0.3,0.3h-0.3l-5.9-6.5l0,0v6.1c0,0.1-0.1,0.3-0.3,0.3h-1.3c-0.1,0-0.3-0.1-0.3-0.3v-9.6
		H746.3z"/>
	<path style="fill:#5D5D5D;" d="M768.5,94.2c1.3,0,2.5,0.5,3.5,1.3c0.1,0.1,0.1,0.3,0,0.4l-0.9,0.9c-0.1,0.1-0.2,0.1-0.4,0
		c-0.6-0.5-1.4-0.8-2.1-0.8c-1.8,0-3.2,1.5-3.2,3.3s1.4,3.3,3.2,3.3c0.8,0,1.4-0.2,1.7-0.4V101h-1.1c-0.2,0-0.3-0.1-0.3-0.3v-1.1
		c0-0.2,0.1-0.3,0.3-0.3h2.7c0.1,0,0.3,0.1,0.3,0.3v3.6c0,0.1-0.1,0.2-0.1,0.2s-1.5,0.9-3.5,0.9c-2.8,0-5.1-2.2-5.1-5.1
		C763.4,96.5,765.7,94.2,768.5,94.2z"/>
</g>
</svg>
